<svg version="1.1" xmlns="http://www.w3.org/2000/svg" xmlns:xlink="http://www.w3.org/1999/xlink" width="122.88px" height="122.88px" viewBox="0,0,256,256"><g fill="#ffffff" fill-rule="evenodd" stroke="none" stroke-width="1" stroke-linecap="butt" stroke-linejoin="miter" stroke-miterlimit="10" stroke-dasharray="" stroke-dashoffset="0" font-family="none" font-weight="none" font-size="none" text-anchor="none" style="mix-blend-mode: normal"><g transform="scale(2.08333,2.08333)"><g><path d="M1.63,97.99l36.55,-36.55l-36.55,-36.55c-2.17,-2.17 -2.17,-5.73 0,-7.9l15.36,-15.36c2.17,-2.17 5.73,-2.17 7.9,0l36.55,36.55l36.55,-36.55c2.17,-2.17 5.73,-2.17 7.9,0l15.36,15.36c2.17,2.17 2.17,5.73 0,7.9l-36.55,36.55l36.55,36.55c2.17,2.17 2.17,5.73 0,7.9l-15.36,15.36c-2.17,2.17 -5.73,2.17 -7.9,0l-36.55,-36.55l-36.55,36.55c-2.17,2.17 -5.73,2.17 -7.9,0l-15.36,-15.36c-2.17,-2.17 -2.17,-5.73 0,-7.9z"></path></g></g></g></svg>