<?xml version="1.0" encoding="utf-8"?>
<!-- Generator: Adobe Illustrator 24.3.0, SVG Export Plug-In . SVG Version: 6.00 Build 0)  -->
<svg version="1.1" id="Layer_1" xmlns="http://www.w3.org/2000/svg" xmlns:xlink="http://www.w3.org/1999/xlink" x="0px" y="0px"
	 viewBox="0 0 200 200" enable-background="new 0 0 200 200" xml:space="preserve">
<path fill="#808080" d="M137.734,68.298c1.6,0,3,1.3,3,3v56.8c0,1.6-1.3,3-3,3H62.93c-1.6,0-3-1.3-3-3v-56.8c0-1.6,1.3-3,3-3
	H137.734z M137.734,64.298H62.93c-3.9,0-7,3.1-7,7v56.8c0,3.8,3.1,7,7,7h74.804c3.8,0,7-3.1,7-7v-56.8
	C144.734,67.398,141.534,64.298,137.734,64.298z"/>
<path fill="#808080" d="M104.334,123.298c-0.5,0-1-0.2-1.4-0.5l-18.4-17.4l-25.104,10.9c-1,0.4-2.2,0-2.6-1c-0.4-1,0-2.2,1-2.6
	l26.304-11.4c0.7-0.3,1.6-0.2,2.2,0.4l18.4,17.3l35.5-17.8c1-0.5,2.2-0.1,2.7,0.9s0.1,2.2-0.9,2.7l-36.8,18.3
	C104.934,123.198,104.634,123.298,104.334,123.298z"/>
<path fill="#808080" d="M107.234,108.198c-0.5,0-1-0.2-1.3-0.5l-11.8-10.8c-0.5-0.4-0.7-1.1-0.6-1.7s0.5-1.2,1.1-1.5l13.4-7
	c0.7-0.4,1.6-0.3,2.2,0.3l12,10.5c0.5,0.4,0.7,1.1,0.7,1.7c-0.1,0.7-0.5,1.2-1.1,1.5l-13.6,7.2
	C107.834,108.098,107.534,108.198,107.234,108.198z M98.934,95.898l8.6,7.9l9.8-5.2l-8.8-7.7L98.934,95.898z"/>
<path fill="#808080" d="M128.234,91.498c-4.2,0-7.6-3.4-7.6-7.5c0-4.1,3.4-7.5,7.6-7.5c4.2,0,7.5,3.4,7.5,7.5
	C135.734,88.098,132.434,91.498,128.234,91.498z M128.234,80.398c-2,0-3.6,1.6-3.6,3.5c0,2,1.6,3.5,3.6,3.5c2,0,3.5-1.6,3.5-3.5
	C131.834,81.998,130.234,80.398,128.234,80.398z"/>
		<MauiImage BaseSize="800,800" />
</svg>
