<?xml version="1.0" encoding="UTF-8"?>
<!DOCTYPE svg PUBLIC "-//W3C//DTD SVG 1.1//EN" "http://www.w3.org/Graphics/SVG/1.1/DTD/svg11.dtd">
<!-- Creator: CorelDRAW -->
<svg xmlns="http://www.w3.org/2000/svg" xml:space="preserve" width="2048px" height="2048px" style="shape-rendering:geometricPrecision; text-rendering:geometricPrecision; image-rendering:optimizeQuality; fill-rule:evenodd; clip-rule:evenodd"
viewBox="0 0 2048 2048"
 xmlns:xlink="http://www.w3.org/1999/xlink">
 <defs>
  <style type="text/css">
   <![CDATA[
    .fil2 {fill:none}
    .fil1 {fill:#FDD835}
    .fil0 {fill:#FFF176}
    .fil3 {fill:#F57C00;fill-rule:nonzero}
    .fil4 {fill:#FB8C00;fill-rule:nonzero}
   ]]>
  </style>
   <clipPath id="id0">
    <path d="M1024 -0.0011811c565.539,0 1024,458.462 1024,1024 0,565.539 -458.462,1024 -1024,1024 -565.539,0 -1024,-458.462 -1024,-1024 0,-565.539 458.462,-1024 1024,-1024z"/>
   </clipPath>
 </defs>
 <g id="Layer_x0020_1">
  <metadata id="CorelCorpID_0Corel-Layer"/>
  <path class="fil0" d="M1024 -0.0011811c565.539,0 1024,458.462 1024,1024 0,565.539 -458.462,1024 -1024,1024 -565.539,0 -1024,-458.462 -1024,-1024 0,-565.539 458.462,-1024 1024,-1024z"/>
  <g style="clip-path:url(#id0)">
   <g id="_466484480">
    <g>
     <polygon id="_3968123681" class="fil1" points="1290.66,516.05 2426.54,1651.93 2428.76,1654.6 2430.84,1657.36 2432.78,1660.21 2434.58,1663.15 2436.24,1666.17 2437.76,1669.26 2439.12,1672.43 2440.34,1675.65 2441.39,1678.93 2442.3,1682.27 2443.04,1685.65 2443.62,1689.07 2444.04,1692.52 2444.28,1696 2444.36,1699.5 2444.27,1703.02 2444,1706.55 2443.55,1710.09 2442.92,1713.62 2442.1,1717.15 2441.1,1720.66 2439.91,1724.16 1304.03,588.277 1305.22,584.782 1306.22,581.268 1307.04,577.741 1307.67,574.208 1308.12,570.672 1308.39,567.142 1308.48,563.622 1308.4,560.119 1308.16,556.639 1307.74,553.186 1307.16,549.767 1306.42,546.387 1305.51,543.052 1304.45,539.77 1303.24,536.543 1301.88,533.38 1300.36,530.287 1298.7,527.267 1296.9,524.327 1294.96,521.475 1292.88,518.713 "/>
     <polygon id="_396825400" class="fil1" points="1304.03,588.277 2439.91,1724.16 2417.94,1783.57 1282.06,647.686 "/>
     <polygon id="_396821056" class="fil1" points="1365.43,721.189 2501.31,1857.07 2504.06,1860.21 2506.79,1863.37 2509.5,1866.57 2512.18,1869.79 2514.83,1873.05 1378.95,737.164 1376.29,733.912 1373.62,730.687 1370.91,727.492 1368.18,724.326 "/>
     <polygon id="_396800776" class="fil1" points="1519.78,727.808 2655.66,1863.69 2657.96,1866.38 2660.14,1869.2 2662.19,1872.14 2664.1,1875.21 2665.87,1878.41 2667.5,1881.72 1531.62,745.836 1529.99,742.523 1528.22,739.329 1526.31,736.26 1524.26,733.314 1522.08,730.496 "/>
     <polygon id="_396814168" class="fil1" points="1531.62,745.836 2667.5,1881.72 2701.08,1954.56 1565.2,818.678 "/>
     <polygon id="_396802240" class="fil1" points="1565.2,818.678 2701.08,1954.56 2702.54,1957.95 2703.81,1961.38 2704.9,1964.83 2705.8,1968.31 2706.53,1971.8 2707.07,1975.3 2707.45,1978.8 2707.64,1982.3 2707.67,1985.79 2707.52,1989.27 2707.21,1992.72 2706.73,1996.15 2706.09,1999.54 2705.29,2002.9 2704.34,2006.21 2703.22,2009.47 2701.95,2012.67 2700.53,2015.81 2698.96,2018.89 2697.25,2021.88 2695.39,2024.8 2693.38,2027.62 2691.23,2030.36 2688.95,2032.99 2686.53,2035.52 2683.97,2037.94 2681.28,2040.24 2678.47,2042.42 2675.52,2044.47 2672.45,2046.38 2669.26,2048.16 2665.94,2049.78 1530.06,913.899 1533.37,912.274 1536.57,910.502 1539.64,908.588 1542.58,906.539 1545.4,904.361 1548.09,902.059 1550.65,899.64 1553.07,897.111 1555.35,894.475 1557.5,891.741 1559.5,888.914 1561.37,885.999 1563.08,883.003 1564.65,879.933 1566.07,876.792 1567.34,873.589 1568.46,870.329 1569.41,867.017 1570.21,863.662 1570.85,860.266 1571.33,856.838 1571.64,853.384 1571.79,849.908 1571.76,846.416 1571.56,842.917 1571.19,839.415 1570.65,835.915 1569.92,832.425 1569.02,828.95 1567.93,825.497 1566.66,822.071 "/>
     <polygon id="_396799456" class="fil1" points="1530.06,913.899 2665.94,2049.78 2608.48,2076.25 1472.6,940.368 "/>
     <polygon id="_396800920" class="fil1" points="1472.6,940.368 2608.48,2076.25 2609.23,2080.38 2609.94,2084.51 2610.6,2088.65 2611.23,2092.78 2611.82,2096.92 2612.38,2101.05 2612.89,2105.18 2613.36,2109.32 2613.8,2113.45 2614.2,2117.59 2614.56,2121.72 2614.88,2125.85 2615.16,2129.98 2615.4,2134.11 2615.61,2138.24 2615.78,2142.36 2615.91,2146.49 2616,2150.61 2616.06,2154.73 2616.08,2158.84 2616.06,2162.96 2616,2167.07 2615.91,2171.18 2615.78,2175.29 2615.61,2179.39 2615.41,2183.49 2615.17,2187.58 2614.89,2191.67 2614.57,2195.76 2614.22,2199.84 2613.83,2203.92 2613.41,2207.99 1477.53,1072.11 1477.95,1068.04 1478.34,1063.96 1478.69,1059.88 1479.01,1055.79 1479.28,1051.7 1479.53,1047.6 1479.73,1043.51 1479.9,1039.4 1480.03,1035.3 1480.12,1031.19 1480.18,1027.08 1480.2,1022.96 1480.18,1018.84 1480.12,1014.72 1480.03,1010.6 1479.9,1006.48 1479.73,1002.35 1479.52,998.226 1479.28,994.097 1478.99,989.967 1478.67,985.835 1478.31,981.704 1477.92,977.57 1477.48,973.436 1477.01,969.302 1476.49,965.168 1475.94,961.033 1475.35,956.899 1474.72,952.765 1474.06,948.633 1473.35,944.5 "/>
     <polygon id="_396821080" class="fil1" points="902.22,499.715 2038.1,1635.6 2040.4,1638.29 2042.58,1641.1 2044.63,1644.05 2046.54,1647.12 2048.32,1650.32 2049.94,1653.63 914.062,517.75 912.437,514.434 910.664,511.239 908.749,508.167 906.7,505.222 904.522,502.404 "/>
     <polygon id="_396801088" class="fil1" points="914.062,517.75 2049.94,1653.63 2076.41,1711.05 940.524,575.169 "/>
     <polygon id="_396826144" class="fil1" points="1551.71,1261.5 2687.59,2397.38 2686.95,2399.05 2686.28,2400.69 2685.56,2402.32 2684.81,2403.92 2684.02,2405.5 2683.19,2407.05 2682.33,2408.59 2681.43,2410.09 2680.5,2411.58 2679.53,2413.03 2678.53,2414.47 2677.49,2415.87 2676.42,2417.25 2675.32,2418.6 2674.19,2419.92 2673.02,2421.22 2671.82,2422.49 2670.59,2423.72 2669.34,2424.93 2668.05,2426.11 2666.73,2427.25 2665.38,2428.36 2664.01,2429.45 2662.61,2430.5 2661.18,2431.51 2659.72,2432.5 2658.24,2433.44 2656.73,2434.36 2655.2,2435.24 2653.64,2436.08 2652.06,2436.89 2650.46,2437.66 1514.58,1301.78 1516.18,1301.01 1517.76,1300.2 1519.32,1299.36 1520.85,1298.48 1522.36,1297.56 1523.84,1296.61 1525.3,1295.63 1526.73,1294.61 1528.13,1293.56 1529.5,1292.48 1530.85,1291.37 1532.17,1290.22 1533.45,1289.05 1534.71,1287.84 1535.94,1286.6 1537.14,1285.34 1538.3,1284.04 1539.44,1282.72 1540.54,1281.37 1541.61,1279.99 1542.65,1278.58 1543.65,1277.15 1544.62,1275.69 1545.55,1274.21 1546.45,1272.7 1547.31,1271.17 1548.14,1269.62 1548.93,1268.04 1549.68,1266.43 1550.4,1264.81 1551.07,1263.16 "/>
     <polygon id="_396805840" class="fil1" points="1514.58,1301.78 2650.46,2437.66 2648.81,2438.4 2647.16,2439.09 2645.49,2439.74 2643.81,2440.34 2642.13,2440.91 2640.43,2441.43 2638.73,2441.9 2637.02,2442.34 2635.31,2442.73 2633.59,2443.08 2631.86,2443.38 2630.13,2443.64 2628.4,2443.86 2626.66,2444.04 2624.92,2444.17 2623.17,2444.26 2621.43,2444.31 2619.68,2444.31 2617.94,2444.27 2616.19,2444.19 2614.45,2444.07 2612.71,2443.9 2610.97,2443.69 2609.23,2443.44 2607.5,2443.14 2605.77,2442.8 2604.04,2442.42 2602.32,2441.99 2600.61,2441.52 2598.9,2441.01 2597.2,2440.46 2595.51,2439.86 1459.63,1303.98 1461.32,1304.58 1463.02,1305.13 1464.73,1305.64 1466.44,1306.11 1468.16,1306.54 1469.89,1306.92 1471.62,1307.26 1473.35,1307.55 1475.09,1307.81 1476.83,1308.02 1478.57,1308.19 1480.31,1308.31 1482.06,1308.39 1483.8,1308.43 1485.55,1308.43 1487.29,1308.38 1489.04,1308.29 1490.78,1308.16 1492.51,1307.98 1494.25,1307.76 1495.98,1307.5 1497.71,1307.19 1499.43,1306.85 1501.14,1306.46 1502.85,1306.02 1504.55,1305.54 1506.25,1305.02 1507.93,1304.46 1509.61,1303.86 1511.27,1303.21 1512.93,1302.51 "/>
     <polygon id="_396821296" class="fil1" points="1459.63,1303.98 2595.51,2439.86 2535.97,2417.79 1400.09,1281.91 "/>
     <polygon id="_396823432" class="fil1" points="1400.09,1281.91 2535.97,2417.79 2533.64,2421.17 2531.28,2424.52 2528.89,2427.85 2526.46,2431.17 2524.01,2434.46 2521.53,2437.73 2519.01,2440.98 2516.47,2444.21 2513.9,2447.41 2511.29,2450.6 2508.66,2453.76 2506,2456.9 2503.3,2460.02 2500.58,2463.11 2497.83,2466.18 2495.04,2469.23 2492.23,2472.25 2489.39,2475.26 2486.51,2478.23 2483.61,2481.19 2480.68,2484.12 2477.72,2487.02 2474.73,2489.9 2471.71,2492.75 2468.66,2495.58 2465.58,2498.39 2462.48,2501.17 2459.34,2503.92 2456.17,2506.65 2452.98,2509.35 2449.76,2512.03 2446.5,2514.68 1310.62,1378.8 1313.87,1376.15 1317.1,1373.47 1320.29,1370.77 1323.46,1368.04 1326.59,1365.29 1329.7,1362.51 1332.78,1359.7 1335.83,1356.87 1338.85,1354.02 1341.84,1351.14 1344.8,1348.23 1347.73,1345.3 1350.63,1342.35 1353.51,1339.37 1356.35,1336.37 1359.16,1333.35 1361.94,1330.3 1364.7,1327.23 1367.42,1324.13 1370.12,1321.02 1372.78,1317.88 1375.41,1314.72 1378.02,1311.53 1380.59,1308.33 1383.13,1305.1 1385.65,1301.85 1388.13,1298.58 1390.58,1295.29 1393,1291.97 1395.39,1288.64 1397.76,1285.28 "/>
     <polygon id="_396807904" class="fil1" points="1310.62,1378.8 2446.5,2514.68 2473,2572.25 1337.12,1436.37 "/>
     <polygon id="_396799984" class="fil1" points="1337.12,1436.37 2473,2572.25 2474.46,2575.64 2475.74,2579.05 2476.83,2582.5 2477.73,2585.96 2478.46,2589.45 2479.01,2592.94 2479.38,2596.43 2479.58,2599.93 2479.6,2603.41 2479.46,2606.88 2479.15,2610.33 2478.67,2613.75 2478.03,2617.14 2477.23,2620.49 2476.27,2623.8 2475.16,2627.06 2473.89,2630.26 2472.47,2633.4 2470.9,2636.47 2469.18,2639.46 2467.32,2642.37 2465.32,2645.2 2463.17,2647.93 2460.89,2650.57 2458.47,2653.1 2455.92,2655.52 2453.24,2657.82 2450.42,2660 2447.49,2662.05 2444.42,2663.96 2441.24,2665.74 2437.93,2667.37 1302.05,1531.48 1305.36,1529.86 1308.54,1528.08 1311.6,1526.17 1314.54,1524.12 1317.36,1521.94 1320.04,1519.63 1322.59,1517.22 1325.01,1514.69 1327.29,1512.05 1329.43,1509.32 1331.44,1506.49 1333.3,1503.58 1335.02,1500.58 1336.59,1497.51 1338.01,1494.38 1339.27,1491.18 1340.39,1487.92 1341.35,1484.61 1342.15,1481.26 1342.79,1477.87 1343.27,1474.45 1343.58,1471 1343.72,1467.53 1343.7,1464.04 1343.5,1460.55 1343.13,1457.06 1342.58,1453.56 1341.85,1450.08 1340.95,1446.62 1339.85,1443.17 1338.58,1439.75 "/>
     <polygon id="_396811888" class="fil1" points="1302.05,1531.48 2437.93,2667.37 2364.99,2700.94 1229.11,1565.05 "/>
     <polygon id="_396819856" class="fil1" points="570.533,975.542 1706.41,2111.42 1646.76,2089.42 510.88,953.542 "/>
     <polygon id="_396821248" class="fil1" points="510.88,953.542 1646.76,2089.42 1645.09,2088.79 1643.45,2088.11 1641.82,2087.4 1640.22,2086.64 1638.64,2085.86 1637.09,2085.03 1635.56,2084.17 1634.05,2083.27 1632.57,2082.33 1631.11,2081.37 1629.68,2080.36 1628.27,2079.33 1626.89,2078.26 1625.54,2077.15 1624.22,2076.02 1622.93,2074.85 487.044,938.965 488.34,940.133 489.663,941.27 491.013,942.373 492.391,943.443 493.797,944.48 495.228,945.484 496.685,946.452 498.168,947.385 499.675,948.284 501.207,949.146 502.763,949.973 504.341,950.762 505.943,951.515 507.567,952.229 509.213,952.905 "/>
     <polygon id="_396806584" class="fil1" points="1024.13,1480.02 2160.01,2615.9 2159.88,2615.9 1024,1480.02 "/>
     <polygon id="_396814408" class="fil1" points="1024,1480.02 2159.88,2615.9 2158.37,2615.89 2156.85,2615.89 2155.34,2615.87 2153.83,2615.85 2152.32,2615.83 2150.8,2615.8 2149.29,2615.76 2147.78,2615.72 2146.27,2615.68 2144.76,2615.63 2143.25,2615.57 2141.74,2615.51 2140.23,2615.45 2138.72,2615.38 2137.22,2615.3 2135.71,2615.22 2134.2,2615.14 2132.69,2615.05 2131.19,2614.95 2129.68,2614.85 2128.18,2614.74 2126.67,2614.63 2125.17,2614.52 2123.67,2614.4 2122.16,2614.27 2120.66,2614.14 2119.16,2614.01 2117.66,2613.87 2116.16,2613.72 2114.66,2613.57 2113.16,2613.42 2111.66,2613.26 975.78,1477.37 977.279,1477.53 978.778,1477.69 980.278,1477.84 981.778,1477.99 983.279,1478.13 984.78,1478.26 986.283,1478.39 987.785,1478.52 989.289,1478.64 990.792,1478.75 992.297,1478.86 993.802,1478.97 995.307,1479.07 996.813,1479.16 998.319,1479.25 999.826,1479.34 1001.33,1479.42 1002.84,1479.49 1004.35,1479.56 1005.86,1479.63 1007.37,1479.69 1008.88,1479.74 1010.39,1479.79 1011.9,1479.84 1013.41,1479.88 1014.92,1479.91 1016.44,1479.94 1017.95,1479.97 1019.46,1479.99 1020.97,1480 1022.49,1480.01 "/>
     <polygon id="_396805768" class="fil1" points="975.78,1477.37 2111.66,2613.26 2089.69,2672.81 953.812,1536.93 "/>
     <polygon id="_396823840" class="fil1" points="669.08,1310.49 1804.96,2446.37 1747.32,2472.83 611.438,1336.95 "/>
     <polygon id="_396819112" class="fil1" points="916.567,1577.29 2052.45,2713.18 2050.8,2713.9 2049.15,2714.58 2047.48,2715.22 2045.81,2715.82 2044.12,2716.38 2042.43,2716.89 2040.73,2717.36 2039.02,2717.79 2037.31,2718.18 2035.59,2718.52 2033.87,2718.82 2032.14,2719.08 2030.4,2719.3 2028.67,2719.47 2026.93,2719.6 2025.19,2719.69 2023.45,2719.74 2021.71,2719.74 2019.96,2719.7 2018.22,2719.62 2016.48,2719.49 2014.74,2719.33 2013.01,2719.12 2011.28,2718.86 2009.55,2718.57 2007.83,2718.23 2006.11,2717.85 2004.39,2717.42 2002.69,2716.95 2000.99,2716.44 1999.3,2715.89 1997.62,2715.3 861.736,1579.41 863.418,1580.01 865.11,1580.56 866.808,1581.07 868.514,1581.54 870.226,1581.96 871.945,1582.35 873.668,1582.68 875.396,1582.98 877.129,1583.23 878.864,1583.44 880.601,1583.61 882.341,1583.74 884.083,1583.82 885.825,1583.86 887.567,1583.85 889.308,1583.81 891.049,1583.72 892.788,1583.59 894.523,1583.42 896.255,1583.2 897.985,1582.94 899.709,1582.64 901.429,1582.29 903.142,1581.91 904.849,1581.48 906.55,1581.01 908.242,1580.5 909.927,1579.94 911.601,1579.34 913.267,1578.7 914.923,1578.02 "/>
     <polygon id="_396806968" class="fil1" points="611.438,1336.95 1747.32,2472.83 1743.94,2474.29 1740.52,2475.56 1737.07,2476.64 1733.61,2477.55 1730.13,2478.27 1726.64,2478.81 1723.15,2479.18 1719.65,2479.38 1716.17,2479.4 1712.71,2479.25 1709.26,2478.94 1705.84,2478.46 1702.45,2477.82 1699.1,2477.02 1695.8,2476.06 1692.55,2474.95 1689.35,2473.68 1686.22,2472.26 1683.15,2470.69 1680.16,2468.97 1677.26,2467.11 1674.43,2465.1 1671.7,2462.96 535.823,1327.08 538.552,1329.22 541.374,1331.23 544.283,1333.09 547.274,1334.81 550.337,1336.38 553.471,1337.8 556.667,1339.07 559.92,1340.18 563.223,1341.14 566.572,1341.94 569.958,1342.58 573.378,1343.06 576.825,1343.37 580.291,1343.52 583.773,1343.49 587.265,1343.3 590.757,1342.93 594.247,1342.39 597.728,1341.66 601.193,1340.76 604.637,1339.68 608.054,1338.41 "/>
     <polygon id="_396819448" class="fil1" points="786.396,1551.58 1922.28,2687.46 1920.6,2686.82 1918.94,2686.14 1917.31,2685.42 1915.7,2684.67 1914.11,2683.88 1912.55,2683.05 1911.01,2682.19 1909.5,2681.29 1908.01,2680.35 1906.55,2679.38 1905.12,2678.37 1903.71,2677.33 1902.33,2676.26 1900.98,2675.15 1899.65,2674.01 763.771,1538.13 765.095,1539.27 766.447,1540.38 767.828,1541.45 769.236,1542.49 770.671,1543.5 772.132,1544.47 773.619,1545.4 775.132,1546.3 776.67,1547.17 778.232,1548 779.82,1548.79 781.43,1549.54 783.063,1550.26 784.718,1550.94 "/>
     <polygon id="_396810712" class="fil1" points="765.894,1399.93 1901.77,2535.81 1898.41,2533.48 1895.06,2531.12 1891.74,2528.74 1888.43,2526.31 1885.15,2523.86 1881.88,2521.38 1878.64,2518.87 1875.42,2516.33 1872.22,2513.75 1869.04,2511.15 1865.88,2508.52 1862.75,2505.85 1859.63,2503.16 1856.54,2500.44 720.66,1364.55 723.751,1367.28 726.865,1369.97 730.001,1372.63 733.158,1375.27 736.338,1377.87 739.538,1380.44 742.76,1382.99 746.004,1385.5 749.268,1387.98 752.553,1390.43 755.858,1392.85 759.184,1395.24 762.529,1397.6 "/>
     <polygon id="_396822520" class="fil1" points="953.812,1536.93 2089.69,2672.81 2089.05,2674.49 2088.36,2676.14 2087.64,2677.77 2086.88,2679.38 2086.09,2680.97 2085.26,2682.53 2084.39,2684.07 2083.49,2685.58 2082.55,2687.07 2081.58,2688.53 2080.58,2689.96 2079.54,2691.37 2078.47,2692.75 2077.37,2694.11 2076.24,2695.43 2075.07,2696.73 2073.87,2698 2072.65,2699.23 2071.39,2700.44 2070.1,2701.62 2068.78,2702.76 2067.43,2703.88 2066.06,2704.96 2064.65,2706.01 2063.22,2707.03 2061.76,2708.01 2060.27,2708.96 2058.76,2709.87 2057.22,2710.75 2055.65,2711.6 2054.06,2712.4 2052.45,2713.18 916.567,1577.29 918.183,1576.52 919.774,1575.71 921.339,1574.87 922.879,1573.99 924.392,1573.08 925.879,1572.13 927.339,1571.14 928.771,1570.13 930.176,1569.08 931.552,1568 932.899,1566.88 934.217,1565.74 935.506,1564.56 936.765,1563.35 937.993,1562.11 939.19,1560.85 940.357,1559.55 941.49,1558.22 942.594,1556.87 943.664,1555.49 944.7,1554.08 945.703,1552.65 946.673,1551.18 947.609,1549.7 948.51,1548.18 949.376,1546.65 950.206,1545.09 951.001,1543.5 951.759,1541.89 952.481,1540.26 953.165,1538.6 "/>
     <polygon id="_396821368" class="fil1" points="861.736,1579.41 1997.62,2715.3 1922.28,2687.46 786.396,1551.58 "/>
     <polygon id="_396814504" class="fil1" points="1107.52,1472.45 2243.4,2608.33 2240.79,2608.8 2238.18,2609.25 2235.58,2609.69 2232.97,2610.12 2230.36,2610.53 2227.75,2610.92 2225.15,2611.3 2222.54,2611.67 2219.93,2612.01 2217.32,2612.35 2214.71,2612.67 2212.1,2612.97 2209.5,2613.26 2206.89,2613.53 2204.28,2613.79 2201.67,2614.04 2199.06,2614.26 2196.46,2614.48 2193.85,2614.68 2191.24,2614.86 2188.64,2615.03 2186.03,2615.18 2183.43,2615.32 2180.82,2615.45 2178.22,2615.55 2175.61,2615.65 2173.01,2615.73 2170.41,2615.79 2167.81,2615.84 2165.21,2615.88 2162.61,2615.89 2160.01,2615.9 1024.13,1480.02 1026.73,1480.01 1029.33,1479.99 1031.93,1479.96 1034.53,1479.91 1037.13,1479.84 1039.73,1479.77 1042.34,1479.67 1044.94,1479.56 1047.54,1479.44 1050.15,1479.3 1052.76,1479.15 1055.36,1478.98 1057.97,1478.79 1060.58,1478.59 1063.18,1478.38 1065.79,1478.15 1068.4,1477.91 1071.01,1477.65 1073.61,1477.38 1076.22,1477.09 1078.83,1476.78 1081.44,1476.47 1084.05,1476.13 1086.66,1475.78 1089.27,1475.42 1091.87,1475.04 1094.48,1474.64 1097.09,1474.24 1099.7,1473.81 1102.3,1473.37 1104.91,1472.92 "/>
     <polygon id="_396807616" class="fil1" points="1229.11,1565.05 2364.99,2700.94 2361.61,2702.39 2358.19,2703.66 2354.75,2704.75 2351.28,2705.65 2347.8,2706.37 2344.31,2706.92 2340.81,2707.28 2337.32,2707.48 2333.84,2707.5 2330.37,2707.35 2326.92,2707.04 2323.49,2706.56 2320.1,2705.91 2316.75,2705.11 2313.44,2704.15 2310.18,2703.03 2306.98,2701.76 2303.85,2700.34 2300.78,2698.77 2297.78,2697.05 2294.87,2695.19 2292.04,2693.18 2289.31,2691.04 2286.67,2688.75 1150.79,1552.87 1153.43,1555.15 1156.16,1557.3 1158.99,1559.3 1161.9,1561.17 1164.9,1562.89 1167.96,1564.46 1171.1,1565.88 1174.3,1567.15 1177.56,1568.27 1180.87,1569.23 1184.22,1570.03 1187.61,1570.67 1191.03,1571.15 1194.48,1571.47 1197.95,1571.62 1201.44,1571.59 1204.93,1571.4 1208.43,1571.03 1211.92,1570.49 1215.4,1569.77 1218.87,1568.87 1222.31,1567.78 1225.73,1566.51 "/>
     <polygon id="_396805192" class="fil1" points="1566.17,1114.05 2702.05,2249.93 2704.26,2252.6 2706.34,2255.36 2708.29,2258.21 2710.09,2261.15 2711.75,2264.16 2713.27,2267.26 2714.63,2270.42 2715.85,2273.64 2716.91,2276.92 2717.81,2280.25 2718.55,2283.62 2719.13,2287.04 2719.55,2290.49 2719.8,2293.96 2719.88,2297.46 2719.79,2300.97 2719.52,2304.49 2719.07,2308.02 2718.44,2311.54 2717.63,2315.06 2716.63,2318.56 2715.44,2322.05 1579.56,1186.16 1580.75,1182.68 1581.75,1179.18 1582.56,1175.66 1583.19,1172.14 1583.64,1168.61 1583.91,1165.09 1584,1161.57 1583.92,1158.08 1583.67,1154.6 1583.25,1151.16 1582.67,1147.74 1581.93,1144.37 1581.02,1141.04 1579.96,1137.76 1578.75,1134.53 1577.38,1131.37 1575.87,1128.28 1574.21,1125.26 1572.41,1122.33 1570.46,1119.47 1568.38,1116.71 "/>
     <polygon id="_396827368" class="fil1" points="1579.56,1186.16 2715.44,2322.05 2687.59,2397.38 1551.71,1261.5 "/>
    </g>
    <path id="_466500080" class="fil1" d="M1094.23 510.626c13.2059,-35.8028 56.1981,-55.5674 92.093,-42.3851l75.3319 27.8362c37.0465,13.7067 56.0918,55.0359 42.378,92.1993l-21.9673 59.4095c36.1134,24.6921 68.7355,54.6248 96.8835,89.478l57.5729 -26.4768c35.8925,-16.637 78.567,-0.827953 95.0977,35.1485l33.5847 72.8422c16.5614,35.9918 0.858662,78.6969 -35.1425,95.2205l-57.4571 26.4697c8.16969,44.0646 9.64253,88.317 4.92756,131.744l59.6315 21.9614c37.0394,13.7209 56.0906,55.05 42.4004,92.0906l-27.8528 75.3319c-6.59174,17.8984 -19.8862,32.25 -37.1315,40.2827 -17.4957,8.07284 -36.9473,8.79331 -54.9449,2.20276l-59.5465 -22.0736c-24.6921,36.1122 -54.6178,68.765 -89.4638,96.8894l26.4933 57.5729c16.6205,35.8855 0.826772,78.5611 -35.0658,95.1131l-72.9426 33.5705c-35.8701,16.5543 -78.5753,0.751182 -95.0977,-35.1508l-26.4933 -57.4571c-27.7961,5.0941 -55.6772,7.6004 -83.3859,7.57087l-0.129921 0c-16.1492,-0.022441 -32.2394,-0.905906 -48.2197,-2.64331l-21.9685 59.5536c-6.69686,17.9965 -19.8791,32.3339 -37.2449,40.3666 -17.4791,7.95827 -36.9331,8.70827 -54.8304,2.1189l-75.3402 -27.8374c-18.013,-6.61418 -32.341,-19.9016 -40.2981,-37.3666 -8.05631,-17.3575 -8.89961,-36.8351 -2.20276,-54.8315l21.998 -59.4473c-35.9988,-24.6697 -68.6599,-54.6189 -96.8139,-89.4414l-57.6414 26.4638c-35.8925,16.5295 -78.4926,0.83504 -95.015,-35.1733l-33.7063 -72.9107c-16.4173,-35.9008 -0.722835,-78.5906 35.1792,-95.1202l57.5422 -26.4638c-8.16969,-43.9654 -9.72757,-88.317 -4.90512,-131.743l-59.6528 -21.9992c-17.8973,-6.59056 -32.2335,-19.8721 -40.2898,-37.2296 -4.22953,-9.23268 -6.44764,-19.0583 -6.59056,-28.9299l0 -1.73858c0.0826772,-8.14134 1.57205,-16.2886 4.50237,-24.1689l27.7229 -75.3485c13.2815,-35.9788 56.3115,-55.7741 92.1969,-42.378l59.4178 21.9898c24.7028,-36.1063 54.7264,-68.7579 89.4733,-96.9981l-26.4721 -57.4583c-16.5213,-35.8925 -0.720473,-78.5894 35.1496,-95.2265l72.9414 -33.4866c35.8949,-16.5236 78.5989,-0.827953 95.1296,35.1803l26.4626 57.4193c27.8362,-5.0752 55.7457,-7.57323 83.4757,-7.56497l0.731103 0c15.9189,0.0295276 31.7788,0.884646 47.5288,2.55355l21.9673 -59.5311z"/>
   </g>
  </g>
  <path class="fil2" d="M1024 -0.0011811c565.539,0 1024,458.462 1024,1024 0,565.539 -458.462,1024 -1024,1024 -565.539,0 -1024,-458.462 -1024,-1024 0,-565.539 458.462,-1024 1024,-1024z"/>
  <path class="fil3" d="M1024 567.604c-27.7299,-0.00826772 -55.6394,2.48977 -83.4757,7.56497l-26.4626 -57.4193c-16.5307,-36.0083 -59.2347,-51.704 -95.1296,-35.1803l-72.9414 33.4866c-35.8701,16.637 -51.6709,59.3339 -35.1496,95.2265l26.4721 57.4583c-34.7469,28.2402 -64.7705,60.8918 -89.4733,96.9981l-59.4178 -21.9898c-35.8855,-13.3961 -78.9154,6.39922 -92.1969,42.378l-27.7229 75.3485c-2.93032,7.88032 -4.41969,16.0276 -4.50237,24.1689l0 1.73858c0.142913,9.87166 2.36103,19.6973 6.59056,28.9299 8.05631,17.3575 22.3925,30.639 40.2898,37.2296l59.6528 21.9992c-4.82244,43.4256 -3.26457,87.7772 4.90512,131.743l-57.5422 26.4638c-35.902,16.5295 -51.5965,59.2193 -35.1792,95.1202l33.7063 72.9107c16.5225,36.0083 59.1225,51.7028 95.015,35.1733l57.6414 -26.4638c28.154,34.8225 60.815,64.7717 96.8139,89.4414l-21.998 59.4473c-6.69686,17.9965 -5.85355,37.474 2.20276,54.8315 7.95709,17.465 22.2851,30.7524 40.2981,37.3666l75.3402 27.8374c17.8973,6.58938 37.3512,5.83937 54.8304,-2.1189 17.3658,-8.03268 30.5481,-22.3701 37.2449,-40.3666l21.9685 -59.5536c15.9803,1.7374 32.0705,2.62087 48.2197,2.64331l0 -172.582c-110.347,-0.0531496 -211.458,-64.8107 -257.597,-164.903 -65.3871,-142.108 -3.02244,-310.869 138.972,-376.278 37.5555,-17.3575 77.4213,-26.0669 118.426,-26.0669l0.199606 0.0011811 0 -172.584z"/>
  <path class="fil4" d="M1537.16 1094.07l-59.6315 -21.9614c4.71496,-43.4268 3.24213,-87.6792 -4.92756,-131.744l57.4571 -26.4697c36.0012,-16.5236 51.704,-59.2288 35.1425,-95.2205l-33.5847 -72.8422c-16.5307,-35.9764 -59.2052,-51.7855 -95.0977,-35.1485l-57.5729 26.4768c-28.1481,-34.8532 -60.7701,-64.7859 -96.8835,-89.478l21.9673 -59.4095c13.7138,-37.1634 -5.3315,-78.4926 -42.378,-92.1993l-75.3319 -27.8362c-35.8949,-13.1823 -78.8871,6.58229 -92.093,42.3851l-21.9673 59.5311c-15.75,-1.6689 -31.6099,-2.52402 -47.5288,-2.55355l-0.731103 0 0 172.584 0.617717 0.00708662c110.102,0.318898 210.891,64.9264 257.012,164.926 65.4095,142.078 3.06142,310.869 -138.949,376.278 -37.5154,17.3421 -77.3658,26.0209 -118.437,26.0374l-0.108662 0 -0.134646 -0.0011811 0 172.582 0.129921 0c27.7087,0.0295276 55.5898,-2.47677 83.3859,-7.57087l26.4933 57.4571c16.5225,35.902 59.2276,51.7052 95.0977,35.1508l72.9426 -33.5705c35.8925,-16.552 51.6863,-59.2276 35.0658,-95.1131l-26.4933 -57.5729c34.8461,-28.1244 64.7717,-60.7772 89.4638,-96.8894l59.5465 22.0736c17.9977,6.59056 37.4492,5.87008 54.9449,-2.20276 17.2453,-8.03268 30.5398,-22.3843 37.1315,-40.2827l27.8528 -75.3319c13.6902,-37.0406 -5.36103,-78.3697 -42.4004,-92.0906z"/>
 </g>
  <MauiImage BaseSize="64,64" Resize="true"/>
</svg>
