<?xml version="1.0" encoding="iso-8859-1"?>
<!-- Generator: Adobe Illustrator 19.0.0, SVG Export Plug-In . SVG Version: 6.00 Build 0)  -->
<svg xmlns="http://www.w3.org/2000/svg" xmlns:xlink="http://www.w3.org/1999/xlink" version="1.1" id="Layer_1" x="0px" y="0px" viewBox="0 0 512 512" style="enable-background:new 0 0 512 512;" xml:space="preserve">
<circle style="fill:#00C3FF;" cx="256" cy="256" r="247.409"/>
<g>
	<path style="fill:#00AAF0;" d="M360.172,399.237c-136.64,0-247.409-110.77-247.409-247.409c0-41.486,10.334-80.516,28.381-114.856   C62.38,78.362,8.591,160.846,8.591,256c0,136.64,110.77,247.409,247.409,247.409c95.154,0,177.638-53.79,219.028-132.553   C440.689,388.902,401.659,399.237,360.172,399.237z"/>
	<polygon style="fill:#00AAF0;" points="329.306,247.409 264.591,247.409 264.591,182.694 247.409,182.694 247.409,247.409    182.694,247.409 182.694,264.591 247.409,264.591 247.409,329.306 264.591,329.306 264.591,264.591 329.306,264.591  "/>
</g>
<circle style="fill:#FFFFFF;" cx="256" cy="256" r="27.49"/>
<path d="M503.409,247.409H320.145c-4.744,0-8.591,3.845-8.591,8.591s3.846,8.591,8.591,8.591h64.621  c-0.759,39.616-6.756,77.523-17.4,111.105H264.591v-55.553c0-4.745-3.846-8.591-8.591-8.591c-4.744,0-8.591,3.845-8.591,8.591  v55.553H144.633c-10.644-33.582-16.641-71.489-17.4-111.105h64.625c4.744,0,8.591-3.845,8.591-8.591s-3.846-8.591-8.591-8.591  h-64.625c0.759-39.616,6.756-77.523,17.4-111.105h102.777v55.55c0,4.745,3.846,8.591,8.591,8.591c4.744,0,8.591-3.845,8.591-8.591  V8.591C264.591,3.845,260.744,0,256,0C187.62,0,123.332,26.629,74.98,74.981C26.629,123.332,0,187.62,0,256  s26.629,132.668,74.98,181.019C123.332,485.371,187.62,512,256,512s132.668-26.629,181.02-74.981  C485.371,388.668,512,324.38,512,256C512,251.255,508.154,247.409,503.409,247.409z M401.951,264.591h92.697  c-1.435,40.368-12.927,78.216-32.057,111.105h-77.258C395.506,341.74,401.222,303.921,401.951,264.591z M361.364,392.877  c-4.6,12.017-9.833,23.368-15.682,33.896c-22.282,40.107-50.806,63.731-81.092,67.499V392.877H361.364z M247.409,392.877v101.395  c-30.286-3.768-58.81-27.393-81.092-67.499c-5.85-10.529-11.082-21.88-15.682-33.896L247.409,392.877L247.409,392.877z   M126.668,375.696H49.41c-19.13-32.889-30.623-70.737-32.057-111.105h92.697C110.778,303.921,116.494,341.74,126.668,375.696z   M110.049,247.409H17.352c1.435-40.368,12.927-78.216,32.057-111.105h77.258C116.494,170.26,110.778,208.079,110.049,247.409z   M150.636,119.123c4.6-12.017,9.833-23.368,15.682-33.896c22.282-40.107,50.806-63.731,81.092-67.499v101.395H150.636z   M191.123,26.141c-14.664,12.639-28.118,29.67-39.824,50.742c-7.226,13.007-13.564,27.17-18.976,42.241h-71.91  C91.621,74.663,137.577,41.274,191.123,26.141z M60.413,392.877h71.91c5.412,15.07,11.75,29.233,18.976,42.241  c11.707,21.072,25.16,38.103,39.824,50.742C137.577,470.726,91.621,437.337,60.413,392.877z M320.877,485.859  c14.664-12.638,28.118-29.67,39.824-50.742c7.226-13.007,13.564-27.17,18.976-42.241h71.91  C420.379,437.337,374.423,470.726,320.877,485.859z"/>
<path d="M219.919,256c0,19.895,16.186,36.081,36.081,36.081s36.081-16.186,36.081-36.081S275.895,219.919,256,219.919  S219.919,236.105,219.919,256z M274.899,256c0,10.421-8.478,18.899-18.899,18.899s-18.899-8.478-18.899-18.899  s8.478-18.899,18.899-18.899S274.899,245.579,274.899,256z"/>
<path d="M290.855,94.163c63.532,13.613,113.376,63.461,126.986,126.994c0.864,4.033,4.427,6.793,8.391,6.793  c0.596,0,1.202-0.063,1.807-0.192c4.639-0.994,7.594-5.56,6.601-10.2c-15.024-70.136-70.05-125.166-140.186-140.195  c-4.641-0.992-9.206,1.962-10.2,6.601C283.261,88.602,286.215,93.169,290.855,94.163z"/>
<path d="M291.396,19.785c50.806,7.546,96.959,30.831,133.469,67.339s59.799,82.66,67.348,133.465c0.633,4.266,4.3,7.328,8.486,7.328  c0.42,0,0.845-0.031,1.274-0.094c4.693-0.698,7.932-5.067,7.234-9.76c-8.095-54.477-33.059-103.957-72.193-143.089  C397.879,35.842,348.397,10.881,293.92,2.79c-4.703-0.686-9.064,2.543-9.76,7.236S286.703,19.088,291.396,19.785z"/>
<path d="M295.801,154.082c-4.42-1.727-9.402,0.456-11.128,4.875c-1.727,4.418,0.455,9.4,4.874,11.128  c23.933,9.352,43.022,28.443,52.372,52.377c1.325,3.392,4.569,5.466,8.004,5.466c1.04,0,2.097-0.19,3.124-0.592  c4.419-1.726,6.602-6.708,4.876-11.128C346.83,187.819,324.188,165.174,295.801,154.082z"/>
<g>
</g>
<g>
</g>
<g>
</g>
<g>
</g>
<g>
</g>
<g>
</g>
<g>
</g>
<g>
</g>
<g>
</g>
<g>
</g>
<g>
</g>
<g>
</g>
<g>
</g>
<g>
</g>
<g>
</g>
		<MauiImage BaseSize="800,800" />
</svg>
