<?xml version="1.0" encoding="iso-8859-1"?>
<!-- Generator: Adobe Illustrator 19.0.0, SVG Export Plug-In . SVG Version: 6.00 Build 0)  -->
<svg xmlns="http://www.w3.org/2000/svg" xmlns:xlink="http://www.w3.org/1999/xlink" version="1.1" id="Layer_1" x="0px" y="0px" viewBox="0 0 512.001 512.001" style="enable-background:new 0 0 512.001 512.001;" xml:space="preserve">
<path style="fill:#F9BBD0;" d="M271.671,142.99c-26.826,0-52.419,4.242-75.813,11.931l0,0  c-73.046-67.923-83.646-26.85-67.673,36.654l0.003-0.002c-17.977,14.782-32.466,32.326-42.39,51.773  c-3.938,7.715-11.783,12.672-20.445,12.618c-0.154-0.001-0.308-0.002-0.461-0.003c-11.025-0.098-20.587,7.637-22.631,18.47  c-1.884,9.985-2.83,20.137-2.83,30.417c0,9.442,0.798,18.775,2.388,27.97c2.84,16.43,14.668,29.932,30.632,34.74  c0.209,0.063,0.419,0.126,0.63,0.188c9.636,2.852,18.05,8.807,23.846,17.017c9.093,12.879,20.335,24.639,33.301,34.999l-0.02,0.009  c0,0,5.103,27.259-13.005,57.903s80.423,47.638,86.72-20.406l-0.002-0.009c21.169,6.108,43.974,9.448,67.749,9.448  c17.991,0,35.424-1.916,52.017-5.49c-1.938,5.271-4.483,10.806-7.823,16.458c-18.108,30.644,80.423,47.638,86.72-20.406  c1.025-11.42,1.605-21.768,1.886-30.979c41.753-29.659,68.101-73.069,68.101-121.441C472.571,215.457,382.625,142.99,271.671,142.99  z"/>
<g style="opacity:0.1;">
	<path d="M271.671,142.99c-5.05,0-10.056,0.151-15.012,0.447c103.969,6.164,185.946,76.073,185.946,161.411   c0,48.373-26.348,91.781-68.101,121.441c-0.281,9.21-0.861,19.558-1.886,30.979c-2.526,27.294-19.894,40.896-38.619,45.432   c25.018,6.323,64.667-3.08,68.586-45.432c1.025-11.42,1.605-21.768,1.886-30.979c41.753-29.659,68.101-73.069,68.101-121.441   C472.571,215.457,382.625,142.99,271.671,142.99z"/>
	<path d="M293.719,461.216c-11.961,2.576-24.365,4.275-37.094,5.032c4.968,0.298,9.983,0.458,15.044,0.458   c6.814,0,13.548-0.278,20.188-0.813C292.531,464.314,293.155,462.753,293.719,461.216z"/>
</g>
<circle style="fill:#FEA001;" cx="271.641" cy="63.921" r="56.408"/>
<circle style="fill:#FFD54F;" cx="271.641" cy="63.921" r="26.44"/>
<path d="M408.398,195.717c36.552,29.182,56.682,67.932,56.682,109.112c0,21.51-5.467,42.346-16.25,61.929  c-1.995,3.625-0.675,8.181,2.95,10.177c1.145,0.631,2.385,0.931,3.606,0.931c2.643,0,5.205-1.401,6.57-3.88  c12.015-21.822,18.107-45.089,18.107-69.156c0-45.831-22.131-88.739-62.316-120.822c-3.232-2.581-7.947-2.053-10.529,1.181  C404.636,188.421,405.165,193.135,408.398,195.717z"/>
<path d="M70.288,374.711l0.666,0.2c8.035,2.377,15.086,7.405,19.851,14.154c8.87,12.562,19.742,24.184,32.347,34.584  c0.633,6.967,1.023,27.478-12.4,50.195c-4.714,7.977-4.29,16.578,1.163,23.594c10.2,13.126,35.763,18.275,58.187,11.724  c21.069-6.153,35.263-21.421,39.931-42.515c19.91,5,40.602,7.532,61.638,7.532c13.206,0,26.359-1.01,39.266-3.009  c-0.492,0.899-1,1.79-1.521,2.674c-4.714,7.977-4.29,16.578,1.163,23.594c7.204,9.271,22.072,14.563,38.086,14.563  c6.658,0,13.515-0.915,20.101-2.838c23.868-6.971,38.913-25.641,41.283-51.244c0.844-9.393,1.442-18.703,1.786-27.731  c12.05-8.902,22.807-18.945,32.014-29.895c2.663-3.167,2.254-7.892-0.913-10.555c-3.167-2.663-7.891-2.254-10.554,0.913  c-9.153,10.885-20.002,20.815-32.246,29.513c-1.912,1.358-3.078,3.534-3.149,5.88c-0.302,9.877-0.927,20.152-1.857,30.517  c-2.303,24.885-17.891,34.52-30.562,38.221c-17.293,5.051-36.521,0.715-42.156-6.536c-1.21-1.556-2.058-3.454-0.094-6.778  c3.344-5.66,6.171-11.608,8.405-17.684c0.942-2.563,0.416-5.437-1.375-7.499c-1.791-2.061-4.559-2.985-7.233-2.41  c-16.396,3.531-33.365,5.322-50.439,5.322c-22.529,0-44.625-3.08-65.673-9.154c-2.522-0.729-5.248-0.076-7.176,1.714  c-1.385,1.288-2.213,3.034-2.365,4.87c-2.325,24.834-17.896,34.457-30.555,38.154c-17.294,5.051-36.521,0.715-42.156-6.536  c-1.21-1.556-2.058-3.454-0.094-6.778c17.883-30.265,14.781-57.517,14.04-62.368c-0.175-2.019-1.166-3.912-2.788-5.207  c-12.525-10.009-23.244-21.269-31.858-33.467c-6.701-9.49-16.588-16.55-27.846-19.882l-0.589-0.176  c-13.291-4.003-23.028-15.053-25.41-28.842c-1.512-8.748-2.278-17.73-2.278-26.695c0-9.765,0.908-19.531,2.7-29.029  c1.364-7.232,7.785-12.425,15.221-12.366l0.462,0.003c11.495,0.077,21.87-6.329,27.164-16.705  c9.399-18.419,23.017-35.036,40.476-49.393c2.353-1.936,3.244-5.036,2.446-7.835c-9.885-39.428-6.323-57.607-0.259-61.194  c3.031-1.791,15.991-4.775,55.623,32.077c1.998,1.858,4.848,2.483,7.441,1.631c23.332-7.668,48.053-11.555,73.474-11.555  c40.764,0,79.758,10.022,112.769,28.984c3.586,2.061,8.167,0.823,10.228-2.765c2.061-3.588,0.822-8.167-2.766-10.228  c-35.277-20.264-76.853-30.975-120.231-30.975c-25.493,0-50.343,3.686-73.942,10.964c-32.955-29.982-55.325-39.841-70.222-31.03  c-14.588,8.626-17.173,33.315-7.703,73.406c-17.334,14.969-31.006,32.14-40.682,51.101c-2.704,5.299-7.958,8.58-13.748,8.532  l-0.418-0.002c-14.727-0.143-27.351,10.202-30.061,24.572c-1.964,10.411-2.96,21.112-2.96,31.806c0,9.817,0.84,19.657,2.497,29.246  C37.79,353.492,51.529,369.062,70.288,374.711z"/>
<path d="M271.66,166.82c-12.87,0-25.54,2.157-37.66,6.411c-3.905,1.37-5.958,5.646-4.589,9.549c1.349,3.845,5.713,5.936,9.55,4.588  c10.522-3.693,21.524-5.565,32.699-5.565c11.176,0,22.169,1.853,32.673,5.508c3.912,1.361,8.179-0.706,9.538-4.614  c1.359-3.908-0.705-8.178-4.613-9.538C297.166,168.953,284.516,166.82,271.66,166.82z"/>
<ellipse transform="matrix(-0.9006 -0.4347 0.4347 -0.9006 114.8546 541.5776)" cx="119.361" cy="257.654" rx="11.459" ry="27.723"/>
<path d="M225.326,30.842c-3.654-1.943-8.189-0.555-10.133,3.098c-4.879,9.175-7.458,19.535-7.458,29.961  c0,35.235,28.665,63.902,63.902,63.902s63.902-28.666,63.902-63.902S306.873,0,271.637,0c-11.698,0-23.144,3.192-33.099,9.232  c-3.538,2.146-4.666,6.754-2.519,10.291s6.756,4.665,10.291,2.519c7.613-4.618,16.371-7.058,25.327-7.058  c26.973,0,48.918,21.945,48.918,48.918s-21.945,48.918-48.918,48.918c-26.973,0-48.918-21.945-48.918-48.918  c0-7.981,1.973-15.909,5.704-22.927C230.365,37.321,228.979,32.785,225.326,30.842z"/>
<path d="M305.568,63.902c0-18.709-15.221-33.932-33.932-33.932s-33.932,15.221-33.932,33.932s15.221,33.932,33.932,33.932  S305.568,82.611,305.568,63.902z M252.69,63.902c0-10.447,8.501-18.948,18.948-18.948s18.948,8.5,18.948,18.948  c0,10.447-8.501,18.948-18.948,18.948S252.69,74.349,252.69,63.902z"/>
<g>
</g>
<g>
</g>
<g>
</g>
<g>
</g>
<g>
</g>
<g>
</g>
<g>
</g>
<g>
</g>
<g>
</g>
<g>
</g>
<g>
</g>
<g>
</g>
<g>
</g>
<g>
</g>
<g>
</g>
</svg>
